# xmcd CD database file
#
# Track frame offsets:
#	150
#	12549
#	23998
#	38756
#	51918
#	64380
#	80244
#	97396
#	110036
#	121230
#	135610
#	146364
#	157806
#	172341
#	183058
#	203185
#	213891
#	225511
#
# Disc length: 3223 seconds
#
# Revision: 3
# Processed by: cddbd v1.5.2PL0 Copyright (c) Steve Scherf et al.
# Submitted via: CDex 2.15
#
DISCID=050c9512
DTITLE=Various Artist - The Blues Breakers [CD 2)
DYEAR=1998
DGENRE=Blues
TTITLE0=Howlin' Wolf - Spoonful
TTITLE1=John Lee Hooker - Boogie Chillen 2
TTITLE2=Muddy Waters - Baby Please Don't Go
TTITLE3=Little Walter - Roller Coaster
TTITLE4=Elmore James - The Sky Is Crying
TTITLE5=B B King - It's My Own Fault Baby
TTITLE6=Ike and Tina Turner - I Smell Trouble
TTITLE7=Bo Diddley - Road Runner
TTITLE8=Canned Heat - Can't Hold On
TTITLE9=Johnny Winter - Low Down Gal Of Mine
TTITLE10=Lightnin' Hopkins - Nothin' But The Blues
TTITLE11=Sonny Boy Williamson - Your Funeral - My Trial
TTITLE12=John Mayall - John Lee Boogie
TTITLE13=Howlin' Wolf - Who's Been Talking
TTITLE14=Etta James - I'd Rather Go Blind
TTITLE15=Ray Charles - I'm Movin' On
TTITLE16=Big Joe Williams - Bye, Bye, Baby Blues
TTITLE17=B B King - Outside Help (Short Version)
EXTD=YEAR: 1998
EXTT0=
EXTT1=
EXTT2=
EXTT3=
EXTT4=
EXTT5=
EXTT6=
EXTT7=
EXTT8=
EXTT9=
EXTT10=
EXTT11=
EXTT12=
EXTT13=
EXTT14=
EXTT15=
EXTT16=
EXTT17=
PLAYORDER=
